<svg width="147" height="147" viewBox="0 0 147 147" fill="none" xmlns="http://www.w3.org/2000/svg">
<path d="M6.125 6.125H67.375V67.375H6.125V6.125ZM18.375 18.375V55.125H55.125V18.375H18.375Z" fill="black"/>
<path fill-rule="evenodd" clip-rule="evenodd" d="M30.625 30.625H42.875V42.875H30.625V30.625Z" fill="black"/>
<path d="M79.625 6.125H140.875V67.375H79.625V6.125ZM91.875 18.375V55.125H128.625V18.375H91.875Z" fill="black"/>
<path fill-rule="evenodd" clip-rule="evenodd" d="M104.125 30.625H116.375V42.875H104.125V30.625Z" fill="black"/>
<path d="M6.125 79.625H67.375V140.875H6.125V79.625ZM18.375 91.875V128.625H55.125V91.875H18.375Z" fill="black"/>
<path fill-rule="evenodd" clip-rule="evenodd" d="M30.625 104.125H42.875V116.375H30.625V104.125Z" fill="black"/>
<path d="M140.875 116.375H116.375V140.875H79.625V79.625V116.375H91.875V128.625H104.125V91.875H91.875V79.625H85.75H104.125V91.875H116.375V104.125H128.625V79.625H140.875V116.375ZM140.875 128.625V140.875H128.625V128.625H140.875Z" fill="black"/>
</svg>
