<svg width="18" height="18" viewBox="0 0 18 18" fill="none" xmlns="http://www.w3.org/2000/svg">
<g clip-path="url(#clip0_57_18513)">
<path d="M2.88752 6.46507C2.77805 5.97197 2.79486 5.45921 2.93639 4.97433C3.07792 4.48945 3.33958 4.04816 3.69712 3.69136C4.05466 3.33457 4.49651 3.07383 4.98168 2.93332C5.46685 2.79281 5.97965 2.77707 6.47252 2.88757C6.7438 2.4633 7.11752 2.11414 7.55924 1.87229C8.00095 1.63043 8.49643 1.50366 9.00002 1.50366C9.50361 1.50366 9.9991 1.63043 10.4408 1.87229C10.8825 2.11414 11.2562 2.4633 11.5275 2.88757C12.0211 2.77659 12.5348 2.79226 13.0208 2.93311C13.5067 3.07396 13.9491 3.33543 14.3069 3.69319C14.6647 4.05095 14.9261 4.49338 15.067 4.97932C15.2078 5.46527 15.2235 5.97895 15.1125 6.47257C15.5368 6.74386 15.886 7.11758 16.1278 7.55929C16.3697 8.001 16.4964 8.49648 16.4964 9.00007C16.4964 9.50366 16.3697 9.99915 16.1278 10.4409C15.886 10.8826 15.5368 11.2563 15.1125 11.5276C15.223 12.0204 15.2073 12.5332 15.0668 13.0184C14.9263 13.5036 14.6655 13.9454 14.3087 14.303C13.9519 14.6605 13.5106 14.9222 13.0258 15.0637C12.5409 15.2052 12.0281 15.222 11.535 15.1126C11.2641 15.5385 10.8901 15.8891 10.4476 16.1321C10.0052 16.375 9.50854 16.5024 9.00377 16.5024C8.499 16.5024 8.00239 16.375 7.55993 16.1321C7.11746 15.8891 6.74345 15.5385 6.47252 15.1126C5.97965 15.2231 5.46685 15.2073 4.98168 15.0668C4.49651 14.9263 4.05466 14.6656 3.69712 14.3088C3.33958 13.952 3.07792 13.5107 2.93639 13.0258C2.79486 12.5409 2.77805 12.0282 2.88752 11.5351C2.45999 11.2645 2.10783 10.8902 1.86381 10.447C1.61978 10.0038 1.49182 9.50603 1.49182 9.00007C1.49182 8.49412 1.61978 7.99638 1.86381 7.55316C2.10783 7.10994 2.45999 6.73564 2.88752 6.46507Z" stroke="white" stroke-width="1.5" stroke-linecap="round" stroke-linejoin="round"/>
<path d="M6.75 9L8.25 10.5L11.25 7.5" stroke="white" stroke-width="1.5" stroke-linecap="round" stroke-linejoin="round"/>
</g>
<defs>
<clipPath id="clip0_57_18513">
<rect width="18" height="18" fill="white"/>
</clipPath>
</defs>
</svg>
