<svg width="26" height="26" viewBox="0 0 26 26" fill="none" xmlns="http://www.w3.org/2000/svg">
<path d="M4.83685 23.6463C4.40692 23.6463 4.03073 23.485 3.70828 23.1626C3.38583 22.8401 3.22461 22.4639 3.22461 22.034V5.37415C3.22461 4.94422 3.38583 4.56803 3.70828 4.24558C4.03073 3.92313 4.40692 3.7619 4.83685 3.7619H6.58345V2.14966H8.33005V3.7619H17.4661V2.14966H19.2127V3.7619H20.9593C21.3892 3.7619 21.7654 3.92313 22.0879 4.24558C22.4103 4.56803 22.5715 4.94422 22.5715 5.37415V22.034C22.5715 22.4639 22.4103 22.8401 22.0879 23.1626C21.7654 23.485 21.3892 23.6463 20.9593 23.6463H4.83685ZM4.83685 22.034H20.9593V10.4796H4.83685V22.034ZM4.83685 8.86735H20.9593V5.37415H4.83685V8.86735ZM12.8981 15.0476C12.5935 15.0476 12.3383 14.9446 12.1323 14.7386C11.9263 14.5326 11.8232 14.2773 11.8232 13.9728C11.8232 13.6683 11.9263 13.413 12.1323 13.207C12.3383 13.001 12.5935 12.898 12.8981 12.898C13.2026 12.898 13.4579 13.001 13.6639 13.207C13.8699 13.413 13.9729 13.6683 13.9729 13.9728C13.9729 14.2773 13.8699 14.5326 13.6639 14.7386C13.4579 14.9446 13.2026 15.0476 12.8981 15.0476ZM8.59876 15.0476C8.29422 15.0476 8.03895 14.9446 7.83294 14.7386C7.62693 14.5326 7.52393 14.2773 7.52393 13.9728C7.52393 13.6683 7.62693 13.413 7.83294 13.207C8.03895 13.001 8.29422 12.898 8.59876 12.898C8.90329 12.898 9.15857 13.001 9.36458 13.207C9.57058 13.413 9.67359 13.6683 9.67359 13.9728C9.67359 14.2773 9.57058 14.5326 9.36458 14.7386C9.15857 14.9446 8.90329 15.0476 8.59876 15.0476ZM17.1974 15.0476C16.8929 15.0476 16.6376 14.9446 16.4316 14.7386C16.2256 14.5326 16.1226 14.2773 16.1226 13.9728C16.1226 13.6683 16.2256 13.413 16.4316 13.207C16.6376 13.001 16.8929 12.898 17.1974 12.898C17.5019 12.898 17.7572 13.001 17.9632 13.207C18.1692 13.413 18.2722 13.6683 18.2722 13.9728C18.2722 14.2773 18.1692 14.5326 17.9632 14.7386C17.7572 14.9446 17.5019 15.0476 17.1974 15.0476ZM12.8981 19.3469C12.5935 19.3469 12.3383 19.2439 12.1323 19.0379C11.9263 18.8319 11.8232 18.5766 11.8232 18.2721C11.8232 17.9676 11.9263 17.7123 12.1323 17.5063C12.3383 17.3003 12.5935 17.1973 12.8981 17.1973C13.2026 17.1973 13.4579 17.3003 13.6639 17.5063C13.8699 17.7123 13.9729 17.9676 13.9729 18.2721C13.9729 18.5766 13.8699 18.8319 13.6639 19.0379C13.4579 19.2439 13.2026 19.3469 12.8981 19.3469ZM8.59876 19.3469C8.29422 19.3469 8.03895 19.2439 7.83294 19.0379C7.62693 18.8319 7.52393 18.5766 7.52393 18.2721C7.52393 17.9676 7.62693 17.7123 7.83294 17.5063C8.03895 17.3003 8.29422 17.1973 8.59876 17.1973C8.90329 17.1973 9.15857 17.3003 9.36458 17.5063C9.57058 17.7123 9.67359 17.9676 9.67359 18.2721C9.67359 18.5766 9.57058 18.8319 9.36458 19.0379C9.15857 19.2439 8.90329 19.3469 8.59876 19.3469ZM17.1974 19.3469C16.8929 19.3469 16.6376 19.2439 16.4316 19.0379C16.2256 18.8319 16.1226 18.5766 16.1226 18.2721C16.1226 17.9676 16.2256 17.7123 16.4316 17.5063C16.6376 17.3003 16.8929 17.1973 17.1974 17.1973C17.5019 17.1973 17.7572 17.3003 17.9632 17.5063C18.1692 17.7123 18.2722 17.9676 18.2722 18.2721C18.2722 18.5766 18.1692 18.8319 17.9632 19.0379C17.7572 19.2439 17.5019 19.3469 17.1974 19.3469Z" fill="#262626"/>
</svg>
