<svg width="22" height="22" viewBox="0 0 22 22" fill="none" xmlns="http://www.w3.org/2000/svg">
<path d="M5.95964 18.3332C4.56936 18.3332 3.38151 17.8519 2.39609 16.8894C1.41068 15.9269 0.917969 14.7505 0.917969 13.3603C0.917969 12.1686 1.277 11.1068 1.99505 10.1748C2.71311 9.24289 3.65269 8.64706 4.8138 8.38734C5.19575 6.98178 5.95964 5.84359 7.10547 4.97275C8.2513 4.10192 9.54991 3.6665 11.0013 3.6665C12.7888 3.6665 14.3051 4.28907 15.5503 5.53421C16.7954 6.77935 17.418 8.29567 17.418 10.0832C18.4721 10.2054 19.3468 10.6599 20.0419 11.4467C20.7371 12.2335 21.0846 13.154 21.0846 14.2082C21.0846 15.354 20.6836 16.328 19.8815 17.13C19.0794 17.9321 18.1055 18.3332 16.9596 18.3332H11.918C11.4138 18.3332 10.9822 18.1537 10.6232 17.7946C10.2641 17.4356 10.0846 17.004 10.0846 16.4998V11.779L8.61797 13.1998L7.33464 11.9165L11.0013 8.24984L14.668 11.9165L13.3846 13.1998L11.918 11.779V16.4998H16.9596C17.6013 16.4998 18.1437 16.2783 18.5867 15.8353C19.0298 15.3922 19.2513 14.8498 19.2513 14.2082C19.2513 13.5665 19.0298 13.0241 18.5867 12.5811C18.1437 12.138 17.6013 11.9165 16.9596 11.9165H15.5846V10.0832C15.5846 8.81511 15.1378 7.73421 14.244 6.84046C13.3503 5.94671 12.2694 5.49984 11.0013 5.49984C9.73325 5.49984 8.65234 5.94671 7.75859 6.84046C6.86484 7.73421 6.41797 8.81511 6.41797 10.0832H5.95964C5.07352 10.0832 4.31727 10.3964 3.69089 11.0228C3.0645 11.6491 2.7513 12.4054 2.7513 13.2915C2.7513 14.1776 3.0645 14.9339 3.69089 15.5603C4.31727 16.1866 5.07352 16.4998 5.95964 16.4998H8.2513V18.3332H5.95964Z" fill="#6C7C92"/>
</svg>
