<svg width="17" height="17" viewBox="0 0 17 17" fill="none" xmlns="http://www.w3.org/2000/svg">
<path d="M15.5479 16.2917L13.4229 14.1667C13.175 14.3674 12.9005 14.5061 12.5995 14.5828C12.2984 14.6595 11.9944 14.6979 11.6875 14.6979C10.8513 14.6979 10.1405 14.405 9.55512 13.8193C8.96976 13.2335 8.67708 12.5222 8.67708 11.6854C8.67708 10.8486 8.96997 10.138 9.55574 9.55365C10.1415 8.96927 10.8528 8.67708 11.6896 8.67708C12.5264 8.67708 13.237 8.96976 13.8214 9.55512C14.4057 10.1405 14.6979 10.8513 14.6979 11.6875C14.6979 11.9944 14.6595 12.3014 14.5828 12.6083C14.5061 12.9153 14.3674 13.1868 14.1667 13.4229L16.2917 15.5479L15.5479 16.2917ZM11.685 13.6354C12.2297 13.6354 12.691 13.4474 13.0688 13.0712C13.4465 12.6951 13.6354 12.2347 13.6354 11.69C13.6354 11.1453 13.4474 10.684 13.0712 10.3062C12.6951 9.92847 12.2347 9.73958 11.69 9.73958C11.1453 9.73958 10.684 9.92764 10.3062 10.3038C9.92847 10.6799 9.73958 11.1403 9.73958 11.685C9.73958 12.2297 9.92764 12.691 10.3038 13.0687C10.6799 13.4465 11.1403 13.6354 11.685 13.6354ZM14.875 7.61458H13.8125V3.1875H12.75V4.78125H4.25V3.1875H3.1875V13.8125H7.61458V14.875H3.1875C2.88056 14.875 2.62674 14.7747 2.42604 14.574C2.22535 14.3733 2.125 14.1194 2.125 13.8125V3.1875C2.125 2.88056 2.22535 2.62674 2.42604 2.42604C2.62674 2.22535 2.88056 2.125 3.1875 2.125H6.76458C6.84722 1.71181 7.05087 1.3724 7.37552 1.10677C7.70017 0.841146 8.075 0.708333 8.5 0.708333C8.925 0.708333 9.29983 0.841146 9.62448 1.10677C9.94913 1.3724 10.1528 1.71181 10.2354 2.125H13.8125C14.1194 2.125 14.3733 2.22535 14.574 2.42604C14.7747 2.62674 14.875 2.88056 14.875 3.1875V7.61458ZM8.5 3.1875C8.70069 3.1875 8.86892 3.11962 9.00469 2.98385C9.14045 2.84809 9.20833 2.67986 9.20833 2.47917C9.20833 2.27847 9.14045 2.11024 9.00469 1.97448C8.86892 1.83871 8.70069 1.77083 8.5 1.77083C8.29931 1.77083 8.13108 1.83871 7.99531 1.97448C7.85955 2.11024 7.79167 2.27847 7.79167 2.47917C7.79167 2.67986 7.85955 2.84809 7.99531 2.98385C8.13108 3.11962 8.29931 3.1875 8.5 3.1875Z" fill="#FD0003"/>
</svg>
