<svg width="17" height="17" viewBox="0 0 17 17" fill="none" xmlns="http://www.w3.org/2000/svg">
<path d="M8.50002 3.4C8.04916 3.4 7.61676 3.57911 7.29794 3.89792C6.97913 4.21673 6.80002 4.64913 6.80002 5.1C6.80002 5.55087 6.97913 5.98327 7.29794 6.30208C7.61676 6.62089 8.04916 6.8 8.50002 6.8C8.95089 6.8 9.38329 6.62089 9.70211 6.30208C10.0209 5.98327 10.2 5.55087 10.2 5.1C10.2 4.64913 10.0209 4.21673 9.70211 3.89792C9.38329 3.57911 8.95089 3.4 8.50002 3.4ZM7.65002 5.1C7.65002 4.87457 7.73958 4.65837 7.89898 4.49896C8.05839 4.33955 8.27459 4.25 8.50002 4.25C8.72546 4.25 8.94166 4.33955 9.10106 4.49896C9.26047 4.65837 9.35002 4.87457 9.35002 5.1C9.35002 5.32543 9.26047 5.54163 9.10106 5.70104C8.94166 5.86045 8.72546 5.95 8.50002 5.95C8.27459 5.95 8.05839 5.86045 7.89898 5.70104C7.73958 5.54163 7.65002 5.32543 7.65002 5.1ZM5.52502 12.325C5.41231 12.325 5.30421 12.3698 5.2245 12.4495C5.1448 12.5292 5.10002 12.6373 5.10002 12.75C5.10002 12.8627 5.1448 12.9708 5.2245 13.0505C5.30421 13.1302 5.41231 13.175 5.52502 13.175H11.475C11.5877 13.175 11.6958 13.1302 11.7755 13.0505C11.8552 12.9708 11.9 12.8627 11.9 12.75C11.9 12.6373 11.8552 12.5292 11.7755 12.4495C11.6958 12.3698 11.5877 12.325 11.475 12.325H5.52502ZM3.40002 3.4C3.40002 2.94913 3.57913 2.51673 3.89794 2.19792C4.21675 1.87911 4.64916 1.7 5.10002 1.7H11.9C12.3509 1.7 12.7833 1.87911 13.1021 2.19792C13.4209 2.51673 13.6 2.94913 13.6 3.4V13.6C13.6 14.0509 13.4209 14.4833 13.1021 14.8021C12.7833 15.1209 12.3509 15.3 11.9 15.3H5.10002C4.64916 15.3 4.21675 15.1209 3.89794 14.8021C3.57913 14.4833 3.40002 14.0509 3.40002 13.6V3.4ZM11.9 2.55H5.10002C4.87459 2.55 4.65839 2.63955 4.49898 2.79896C4.33958 2.95836 4.25002 3.17457 4.25002 3.4V10.2H5.95002V8.5C5.95002 8.27457 6.03958 8.05837 6.19898 7.89896C6.35839 7.73955 6.57459 7.65 6.80002 7.65H10.2C10.4255 7.65 10.6417 7.73955 10.8011 7.89896C10.9605 8.05837 11.05 8.27457 11.05 8.5V10.2H12.75V3.4C12.75 3.17457 12.6605 2.95836 12.5011 2.79896C12.3417 2.63955 12.1255 2.55 11.9 2.55ZM10.2 8.5H6.80002V10.2H10.2V8.5ZM4.25002 11.05V13.6C4.25002 13.8254 4.33958 14.0416 4.49898 14.201C4.65839 14.3604 4.87459 14.45 5.10002 14.45H11.9C12.1255 14.45 12.3417 14.3604 12.5011 14.201C12.6605 14.0416 12.75 13.8254 12.75 13.6V11.05H4.25002Z" fill="#FD0003"/>
</svg>
