<svg width="20" height="20" viewBox="0 0 20 20" fill="none" xmlns="http://www.w3.org/2000/svg">
<path d="M5.04175 14.8126C4.76397 14.6598 4.54869 14.4551 4.39591 14.1984C4.24314 13.9418 4.16675 13.6534 4.16675 13.3334V9.33343L2.16675 8.22926C2.01397 8.14593 1.90286 8.04176 1.83341 7.91676C1.76397 7.79176 1.72925 7.65287 1.72925 7.50009C1.72925 7.34732 1.76397 7.20843 1.83341 7.08343C1.90286 6.95843 2.01397 6.85426 2.16675 6.77093L9.20842 2.93759C9.33342 2.86815 9.46203 2.81593 9.59425 2.78093C9.72647 2.74593 9.86175 2.72871 10.0001 2.72926C10.1384 2.72982 10.274 2.74732 10.4067 2.78176C10.5395 2.81621 10.6679 2.86815 10.7917 2.93759L18.7292 7.27093C18.8681 7.34037 18.9759 7.44121 19.0526 7.57343C19.1292 7.70565 19.1673 7.84787 19.1667 8.00009V13.3334C19.1667 13.5695 19.0867 13.7676 18.9267 13.9276C18.7667 14.0876 18.569 14.1673 18.3334 14.1668C18.0979 14.1662 17.9001 14.0862 17.7401 13.9268C17.5801 13.7673 17.5001 13.5695 17.5001 13.3334V8.41676L15.8334 9.33343V13.3334C15.8334 13.6529 15.757 13.9412 15.6042 14.1984C15.4515 14.4556 15.2362 14.6604 14.9584 14.8126L10.7917 17.0626C10.6667 17.132 10.5384 17.1843 10.4067 17.2193C10.2751 17.2543 10.1395 17.2715 10.0001 17.2709C9.86064 17.2704 9.72508 17.2531 9.59341 17.2193C9.46175 17.1854 9.33342 17.1332 9.20842 17.0626L5.04175 14.8126ZM10.0001 10.5834L15.7084 7.50009L10.0001 4.41676L4.29175 7.50009L10.0001 10.5834ZM10.0001 15.6043L14.1667 13.3543V10.2084L10.8126 12.0626C10.6876 12.132 10.5556 12.1843 10.4167 12.2193C10.2779 12.2543 10.139 12.2715 10.0001 12.2709C9.86119 12.2704 9.7223 12.2531 9.58341 12.2193C9.44453 12.1854 9.31258 12.1332 9.18758 12.0626L5.83341 10.2084V13.3543L10.0001 15.6043Z" fill="#FD0003"/>
</svg>
