<svg width="23" height="23" viewBox="0 0 23 23" fill="none" xmlns="http://www.w3.org/2000/svg">
<path d="M11.4994 7.06977C10.3242 7.06977 9.19706 7.53664 8.36602 8.36768C7.53499 9.19872 7.06812 10.3258 7.06812 11.5011C7.06812 12.6764 7.53499 13.8035 8.36602 14.6345C9.19706 15.4656 10.3242 15.9324 11.4994 15.9324C12.6747 15.9324 13.8018 15.4656 14.6329 14.6345C15.4639 13.8035 15.9308 12.6764 15.9308 11.5011C15.9308 10.3258 15.4639 9.19872 14.6329 8.36768C13.8018 7.53664 12.6747 7.06977 11.4994 7.06977ZM11.4994 14.379C10.7359 14.379 10.0037 14.0757 9.46381 13.5358C8.92392 12.9959 8.62062 12.2637 8.62062 11.5001C8.62062 10.7366 8.92392 10.0044 9.46381 9.46451C10.0037 8.92462 10.7359 8.62131 11.4994 8.62131C12.263 8.62131 12.9952 8.92462 13.5351 9.46451C14.075 10.0044 14.3783 10.7366 14.3783 11.5001C14.3783 12.2637 14.075 12.9959 13.5351 13.5358C12.9952 14.0757 12.263 14.379 11.4994 14.379Z" fill="#A7A7A7"/>
<path d="M16.1051 7.94009C16.6757 7.94009 17.1382 7.47756 17.1382 6.90701C17.1382 6.33645 16.6757 5.87392 16.1051 5.87392C15.5345 5.87392 15.072 6.33645 15.072 6.90701C15.072 7.47756 15.5345 7.94009 16.1051 7.94009Z" fill="#A7A7A7"/>
<path d="M19.677 5.85623C19.4552 5.28332 19.1161 4.76304 18.6816 4.3287C18.2471 3.89436 17.7267 3.55553 17.1537 3.3339C16.4832 3.0822 15.7748 2.9461 15.0588 2.9314C14.1359 2.89115 13.8436 2.87965 11.5034 2.87965C9.16313 2.87965 8.86317 2.87965 7.94796 2.9314C7.23246 2.94535 6.52461 3.08147 5.85496 3.3339C5.28182 3.55527 4.76128 3.89401 4.32674 4.32839C3.89221 4.76276 3.55327 5.28317 3.33167 5.85623C3.07992 6.52669 2.94414 7.23512 2.93013 7.95115C2.88892 8.87306 2.87646 9.16535 2.87646 11.5066C2.87646 13.8468 2.87646 14.1449 2.93013 15.062C2.94451 15.7788 3.07963 16.4861 3.33167 17.1579C3.55389 17.7307 3.89316 18.2509 4.3278 18.6852C4.76244 19.1195 5.2829 19.4584 5.85592 19.6802C6.5243 19.942 7.23245 20.0878 7.94988 20.1114C8.87276 20.1517 9.16505 20.1641 11.5053 20.1641C13.8455 20.1641 14.1455 20.1641 15.0607 20.1114C15.7767 20.0969 16.485 19.9611 17.1556 19.7099C17.7285 19.4877 18.2487 19.1486 18.6832 18.7142C19.1176 18.2797 19.4568 17.7595 19.6789 17.1866C19.931 16.5158 20.0661 15.8085 20.0805 15.0917C20.1217 14.1698 20.1341 13.8775 20.1341 11.5363C20.1341 9.19506 20.1341 8.89798 20.0805 7.98085C20.0693 7.2547 19.9328 6.53593 19.677 5.85623ZM18.5098 14.9911C18.5036 15.5434 18.4028 16.0905 18.2117 16.6087C18.0678 16.9814 17.8475 17.3198 17.5649 17.6022C17.2823 17.8846 16.9438 18.1047 16.571 18.2484C16.0586 18.4386 15.5172 18.5394 14.9706 18.5465C14.0602 18.5886 13.8034 18.5992 11.4689 18.5992C9.13247 18.5992 8.89384 18.5992 7.96617 18.5465C7.41985 18.5398 6.87878 18.439 6.36671 18.2484C5.99266 18.1056 5.65276 17.8859 5.36898 17.6034C5.08521 17.321 4.86389 16.9821 4.71934 16.6087C4.53098 16.0961 4.43022 15.5554 4.4213 15.0093C4.38009 14.0989 4.37051 13.842 4.37051 11.5075C4.37051 9.17206 4.37051 8.93344 4.4213 8.00481C4.42749 7.45284 4.5283 6.90601 4.71934 6.38811C5.01163 5.63198 5.61059 5.03686 6.36671 4.74744C6.87903 4.55782 7.41995 4.45703 7.96617 4.4494C8.87755 4.40819 9.13342 4.39669 11.4689 4.39669C13.8043 4.39669 14.0439 4.39669 14.9706 4.4494C15.5173 4.45597 16.0587 4.5568 16.571 4.74744C16.9438 4.89145 17.2823 5.1118 17.5648 5.39434C17.8474 5.67689 18.0677 6.01538 18.2117 6.38811C18.4001 6.90076 18.5008 7.44147 18.5098 7.98756C18.551 8.89894 18.5615 9.15481 18.5615 11.4903C18.5615 13.8248 18.5615 14.0759 18.5203 14.992H18.5098V14.9911Z" fill="#A7A7A7"/>
</svg>
