<svg width="20" height="20" viewBox="0 0 20 20" fill="none" xmlns="http://www.w3.org/2000/svg">
<path d="M5.00008 15.0001H10.0001V14.6251C10.0001 14.389 9.93397 14.1701 9.80175 13.9684C9.66953 13.7667 9.48564 13.6106 9.25008 13.5001C8.9723 13.3751 8.69119 13.2815 8.40675 13.2192C8.1223 13.157 7.82008 13.1256 7.50008 13.1251C7.18008 13.1245 6.87786 13.1559 6.59341 13.2192C6.30897 13.2826 6.02786 13.3762 5.75008 13.5001C5.51397 13.6112 5.3298 13.7676 5.19758 13.9692C5.06536 14.1709 4.99953 14.3895 5.00008 14.6251V15.0001ZM12.2917 13.7501H14.3751C14.5556 13.7501 14.7051 13.6909 14.8234 13.5726C14.9417 13.4542 15.0006 13.3051 15.0001 13.1251C14.9995 12.9451 14.9404 12.7959 14.8226 12.6776C14.7048 12.5592 14.5556 12.5001 14.3751 12.5001H12.2917C12.1112 12.5001 11.962 12.5592 11.8442 12.6776C11.7265 12.7959 11.6673 12.9451 11.6667 13.1251C11.6662 13.3051 11.7254 13.4545 11.8442 13.5734C11.9631 13.6923 12.1123 13.7512 12.2917 13.7501ZM7.50008 12.5001C7.8473 12.5001 8.14258 12.3787 8.38591 12.1359C8.62925 11.8931 8.75064 11.5979 8.75008 11.2501C8.74953 10.9023 8.62814 10.6073 8.38591 10.3651C8.14369 10.1229 7.84841 10.0012 7.50008 10.0001C7.15175 9.99897 6.85675 10.1206 6.61508 10.3651C6.37341 10.6095 6.25175 10.9045 6.25008 11.2501C6.24841 11.5956 6.37008 11.8909 6.61508 12.1359C6.86008 12.3809 7.15508 12.5023 7.50008 12.5001ZM12.2917 11.2501H14.3751C14.5556 11.2501 14.7051 11.1909 14.8234 11.0726C14.9417 10.9542 15.0006 10.8051 15.0001 10.6251C14.9995 10.4451 14.9404 10.2959 14.8226 10.1776C14.7048 10.0592 14.5556 10.0001 14.3751 10.0001H12.2917C12.1112 10.0001 11.962 10.0592 11.8442 10.1776C11.7265 10.2959 11.6673 10.4451 11.6667 10.6251C11.6662 10.8051 11.7254 10.9545 11.8442 11.0734C11.9631 11.1923 12.1123 11.2512 12.2917 11.2501ZM3.33341 18.3334C2.87508 18.3334 2.48286 18.1704 2.15675 17.8442C1.83064 17.5181 1.6673 17.1256 1.66675 16.6667V7.50008C1.66675 7.04175 1.83008 6.64953 2.15675 6.32341C2.48341 5.9973 2.87564 5.83397 3.33341 5.83341H7.50008V3.33341C7.50008 2.87508 7.66341 2.48286 7.99008 2.15675C8.31675 1.83064 8.70897 1.6673 9.16675 1.66675H10.8334C11.2917 1.66675 11.6842 1.83008 12.0109 2.15675C12.3376 2.48341 12.5006 2.87564 12.5001 3.33341V5.83341H16.6667C17.1251 5.83341 17.5176 5.99675 17.8442 6.32341C18.1709 6.65008 18.334 7.0423 18.3334 7.50008V16.6667C18.3334 17.1251 18.1704 17.5176 17.8442 17.8442C17.5181 18.1709 17.1256 18.334 16.6667 18.3334H3.33341ZM3.33341 16.6667H16.6667V7.50008H12.5001C12.5001 7.95841 12.337 8.35091 12.0109 8.67758C11.6848 9.00425 11.2923 9.1673 10.8334 9.16675H9.16675C8.70841 9.16675 8.31619 9.00369 7.99008 8.67758C7.66397 8.35147 7.50064 7.95897 7.50008 7.50008H3.33341V16.6667ZM9.16675 7.50008H10.8334V3.33341H9.16675V7.50008Z" fill="#FD0003"/>
</svg>
