<svg width="17" height="17" viewBox="0 0 17 17" fill="none" xmlns="http://www.w3.org/2000/svg">
<path d="M9.91634 12.7501C8.65907 12.7498 7.43802 12.3289 6.44763 11.5544L3.3338 14.6682L2.33222 13.6667L5.44605 10.5528C4.67113 9.56234 4.24998 8.34102 4.24967 7.08341C4.24967 3.95896 6.79188 1.41675 9.91634 1.41675C13.0408 1.41675 15.583 3.95896 15.583 7.08341C15.583 10.2079 13.0408 12.7501 9.91634 12.7501ZM9.91634 2.83341C7.57247 2.83341 5.66634 4.73954 5.66634 7.08341C5.66634 9.42729 7.57247 11.3334 9.91634 11.3334C12.2602 11.3334 14.1663 9.42729 14.1663 7.08341C14.1663 4.73954 12.2602 2.83341 9.91634 2.83341Z" fill="#FD0003"/>
<path d="M8.91605 6.08169C8.64759 6.35086 8.49955 6.70644 8.49955 7.08327H7.08288C7.08226 6.71099 7.15543 6.34228 7.29816 5.99845C7.4409 5.65462 7.65037 5.34249 7.91447 5.08011C8.98689 4.00911 10.8463 4.00911 11.918 5.08011L10.9178 6.08311C10.3795 5.54619 9.45155 5.54761 8.91605 6.08169Z" fill="#FD0003"/>
</svg>
