<svg width="32" height="32" viewBox="0 0 32 32" fill="none" xmlns="http://www.w3.org/2000/svg">
<path d="M9.55931 29.3C8.89735 29.3 8.33304 29.0643 7.86637 28.593C7.39971 28.1216 7.16637 27.5549 7.16637 26.893C7.16637 26.231 7.40206 25.6667 7.87344 25.2C8.34484 24.7334 8.91151 24.5 9.57344 24.5C10.2354 24.5 10.7997 24.7357 11.2664 25.2071C11.733 25.6785 11.9664 26.2452 11.9664 26.9071C11.9664 27.569 11.7307 28.1334 11.2593 28.6C10.7879 29.0667 10.2212 29.3 9.55931 29.3ZM22.8926 29.3C22.2307 29.3 21.6664 29.0643 21.1997 28.593C20.733 28.1216 20.4997 27.5549 20.4997 26.893C20.4997 26.231 20.7354 25.6667 21.2068 25.2C21.6782 24.7334 22.2448 24.5 22.9068 24.5C23.5687 24.5 24.133 24.7357 24.5997 25.2071C25.0664 25.6785 25.2997 26.2452 25.2997 26.9071C25.2997 27.569 25.064 28.1334 24.5926 28.6C24.1212 29.0667 23.5546 29.3 22.8926 29.3ZM7.83304 7.30002L11.4997 14.9H21.0997L25.2664 7.30002H7.83304ZM6.83304 5.30002H26.4688C26.9792 5.30002 27.3674 5.53335 27.6337 6.00002C27.8999 6.46669 27.8997 6.93335 27.633 7.40002L23.133 15.5C22.8886 15.9222 22.5713 16.2611 22.1811 16.5167C21.7909 16.7722 21.3637 16.9 20.8997 16.9H10.7997L8.93304 20.3667H25.2997V22.3667H9.23304C8.29971 22.3667 7.62749 22.0556 7.21637 21.4334C6.80526 20.8111 6.81082 20.1111 7.23304 19.3334L9.36637 15.4L4.29971 4.66669H1.69971V2.66669H5.59971L6.83304 5.30002Z" fill="#727070"/>
</svg>
