<svg width="20" height="20" viewBox="0 0 20 20" fill="none" xmlns="http://www.w3.org/2000/svg">
<path d="M17.4648 4.37489C16.1289 4.39442 15.0312 5.48426 15.0039 6.8202C14.9844 7.76942 15.4922 8.60145 16.2539 9.03895V13.4374C16.2539 15.6757 14.293 17.4999 11.8789 17.4999C9.53516 17.4999 7.61328 15.7772 7.50781 13.6249C10.3516 13.0389 12.5 10.5155 12.5 7.49989V1.42957C12.5 0.98426 12.1836 0.597541 11.7461 0.511604L9.28906 0.0194164C8.78125 -0.0821461 8.28906 0.245979 8.1875 0.753791L8.0625 1.36707C7.96094 1.87489 8.28906 2.36707 8.79688 2.46864L9.99609 2.70692V7.4491C9.99609 9.51551 8.34766 11.2264 6.28125 11.246C4.19531 11.2655 2.49609 9.57801 2.49609 7.49598V2.71082L3.69531 2.47254C4.20312 2.37098 4.53125 1.87879 4.42969 1.37098L4.30859 0.757698C4.20703 0.249885 3.71484 -0.0782399 3.20703 0.0233226L0.753906 0.507698C0.316406 0.597541 0 0.980354 0 1.42957V7.49989C0 10.5194 2.15234 13.0468 5.00391 13.6249C5.10547 17.1561 8.14844 19.9999 11.875 19.9999C15.6641 19.9999 18.75 17.0546 18.75 13.4374V9.03895C19.4961 8.60535 20 7.80067 20 6.87489C20 5.48035 18.8594 4.35535 17.4648 4.37489ZM17.5 7.49989C17.1562 7.49989 16.875 7.21864 16.875 6.87489C16.875 6.53114 17.1562 6.24989 17.5 6.24989C17.8438 6.24989 18.125 6.53114 18.125 6.87489C18.125 7.21864 17.8438 7.49989 17.5 7.49989Z" fill="white"/>
</svg>
