<svg width="34" height="34" viewBox="0 0 34 34" fill="none" xmlns="http://www.w3.org/2000/svg">
<path d="M4.36576 28.1252C5.25948 27.9552 6.17505 27.5909 7.15133 27.2558C8.58662 26.7652 10.0219 26.2115 11.3528 25.8472C11.7311 25.7435 12.1304 25.7435 12.5088 25.8472L21.0428 27.9892L31.2695 25.2012L31.7552 15.1032C31.8651 11.8238 31.625 8.54207 31.0388 5.31364C30.8129 4.07021 30.6332 2.71507 29.7443 1.81892C29.4918 1.56392 29.1979 1.3915 28.8773 1.42307C27.6946 1.53235 26.4269 1.86021 25.5259 2.10792C24.4768 2.39692 23.2746 2.98707 22.1016 3.5505C21.5943 3.79196 21.0179 3.84616 20.4745 3.7035L11.9308 1.4935C10.4445 1.14135 8.16162 1.71692 6.75791 2.1055C5.87876 2.34835 4.89519 2.79764 3.91162 3.27121C3.55705 3.43878 3.25591 3.8735 3.02762 4.3155C2.63176 5.0805 2.46905 5.93778 2.31848 6.78292L2.19705 7.45807C1.21036 13.0027 1.21036 18.6779 2.19705 24.2225C2.43019 25.5194 2.58076 26.9716 3.56434 27.8411C3.80234 28.0524 4.07433 28.1811 4.36576 28.1228" fill="#FFE2E2"/>
<path d="M31.7795 13.8185C31.7959 10.9668 31.548 8.11965 31.0388 5.31368C30.8129 4.07025 30.6332 2.71511 29.7443 1.81896C29.4918 1.56396 29.1979 1.39153 28.8773 1.42068C27.6946 1.52996 26.4269 1.85782 25.5259 2.10553C24.4768 2.39696 23.2746 2.98711 22.1016 3.54811C21.5943 3.78957 21.0179 3.84377 20.4745 3.70111L11.9308 1.49111C10.4445 1.14139 8.16162 1.71939 6.75791 2.10553C5.87876 2.34839 4.89519 2.80011 3.91162 3.27125C3.55705 3.44125 3.25591 3.87596 3.02762 4.31796C2.63176 5.08296 2.46905 5.93782 2.31848 6.78539L2.19705 7.46053C1.21036 13.0051 1.21036 18.6804 2.19705 24.225C2.43019 25.5194 2.58076 26.9717 3.56434 27.8435C3.80234 28.0548 4.07433 28.1811 4.36576 28.1252C5.25948 27.9552 6.17505 27.5885 7.15133 27.2534C8.58662 26.7628 10.0219 26.2091 11.3528 25.8448C11.7311 25.7411 12.1304 25.7411 12.5088 25.8448L15.3308 26.5758" stroke="#FD0003" stroke-linecap="round" stroke-linejoin="round"/>
<path d="M12.2965 25.8302C12.1239 25.7884 11.9472 25.7656 11.7695 25.7622V1.7971C11.7695 1.6951 11.7752 1.59391 11.7865 1.49353L20.7091 3.72782C20.9633 3.78934 21.2183 3.80796 21.4741 3.78367V13.2065" stroke="#FD0003" stroke-linecap="round" stroke-linejoin="round"/>
<path d="M32.5426 23.6324C32.5426 28.4483 26.9691 32.6181 26.3692 32.6181C25.7669 32.6181 20.1934 28.4483 20.1934 23.6324C20.1934 21.9948 20.8439 20.4242 22.0019 19.2663C23.1598 18.1083 24.7304 17.4578 26.368 17.4578C28.0056 17.4578 29.5762 18.1083 30.7341 19.2663C31.8921 20.4242 32.5426 21.9948 32.5426 23.6324Z" fill="white"/>
<path d="M26.3668 23.7563V23.3871M32.5426 23.6324C32.5426 28.4483 26.9691 32.6181 26.3692 32.6181C25.7669 32.6181 20.1934 28.4483 20.1934 23.6324C20.1934 21.9948 20.8439 20.4242 22.0019 19.2663C23.1598 18.1083 24.7304 17.4578 26.368 17.4578C28.0056 17.4578 29.5762 18.1083 30.7341 19.2663C31.8921 20.4242 32.5426 21.9948 32.5426 23.6324Z" stroke="#FD0003" stroke-linecap="round" stroke-linejoin="round"/>
</svg>
