<svg width="29" height="29" viewBox="0 0 29 29" fill="none" xmlns="http://www.w3.org/2000/svg">
<path d="M12.6042 19.0433L18.8754 15.4183L12.6042 11.7933V19.0433ZM26.5725 9.58204C26.7296 10.15 26.8383 10.9112 26.9108 11.8779C26.9954 12.8445 27.0317 13.6783 27.0317 14.4033L27.1042 15.4183C27.1042 18.0645 26.9108 20.01 26.5725 21.2545C26.2704 22.342 25.5696 23.0429 24.4821 23.345C23.9142 23.502 22.875 23.6108 21.28 23.6833C19.7092 23.7679 18.2712 23.8041 16.9421 23.8041L15.0208 23.8766C9.95792 23.8766 6.80417 23.6833 5.55958 23.345C4.47208 23.0429 3.77125 22.342 3.46917 21.2545C3.31208 20.6866 3.20333 19.9254 3.13083 18.9587C3.04625 17.992 3.01 17.1583 3.01 16.4333L2.9375 15.4183C2.9375 12.772 3.13083 10.8266 3.46917 9.58204C3.77125 8.49454 4.47208 7.79371 5.55958 7.49163C6.1275 7.33454 7.16667 7.22579 8.76167 7.15329C10.3325 7.06871 11.7704 7.03246 13.0996 7.03246L15.0208 6.95996C20.0837 6.95996 23.2375 7.15329 24.4821 7.49163C25.5696 7.79371 26.2704 8.49454 26.5725 9.58204Z" fill="#727070"/>
</svg>
