<svg width="23" height="23" viewBox="0 0 23 23" fill="none" xmlns="http://www.w3.org/2000/svg">
<path d="M9.58341 14.375L14.5572 11.5L9.58341 8.625V14.375ZM20.6617 6.87125C20.7863 7.32167 20.8726 7.92542 20.9301 8.69208C20.9972 9.45875 21.0259 10.12 21.0259 10.695L21.0834 11.5C21.0834 13.5988 20.9301 15.1417 20.6617 16.1287C20.4222 16.9913 19.8663 17.5471 19.0038 17.7867C18.5534 17.9112 17.7292 17.9975 16.4642 18.055C15.2184 18.1221 14.078 18.1508 13.0238 18.1508L11.5001 18.2083C7.48466 18.2083 4.98341 18.055 3.99633 17.7867C3.13383 17.5471 2.578 16.9913 2.33841 16.1287C2.21383 15.6783 2.12758 15.0746 2.07008 14.3079C2.003 13.5413 1.97425 12.88 1.97425 12.305L1.91675 11.5C1.91675 9.40125 2.07008 7.85833 2.33841 6.87125C2.578 6.00875 3.13383 5.45292 3.99633 5.21333C4.44675 5.08875 5.27091 5.0025 6.53591 4.945C7.78175 4.87792 8.92216 4.84917 9.97633 4.84917L11.5001 4.79167C15.5155 4.79167 18.0167 4.945 19.0038 5.21333C19.8663 5.45292 20.4222 6.00875 20.6617 6.87125Z" fill="#A7A7A7"/>
</svg>
