<svg width="18" height="18" viewBox="0 0 18 18" fill="none" xmlns="http://www.w3.org/2000/svg">
<path d="M9 16.5C7.2875 16.5 5.85938 15.9125 4.71563 14.7375C3.57188 13.5625 3 12.1 3 10.35C3 9.1 3.49688 7.74063 4.49063 6.27188C5.48438 4.80313 6.9875 3.2125 9 1.5C11.0125 3.2125 12.5156 4.80313 13.5094 6.27188C14.5031 7.74063 15 9.1 15 10.35C15 12.1 14.4281 13.5625 13.2844 14.7375C12.1406 15.9125 10.7125 16.5 9 16.5ZM9 15.375C10.4 15.375 11.5625 14.8969 12.4875 13.9406C13.4125 12.9844 13.875 11.7855 13.875 10.344C13.875 9.36049 13.4594 8.24063 12.6281 6.98438C11.7969 5.72813 10.5875 4.4 9 3C7.4125 4.4 6.20312 5.72813 5.37188 6.98438C4.54063 8.24063 4.125 9.36049 4.125 10.344C4.125 11.7855 4.5875 12.9844 5.5125 13.9406C6.4375 14.8969 7.6 15.375 9 15.375ZM6.75 13.125H11.25V12H6.75V13.125ZM8.4375 11.25H9.5625V9.5625H11.25V8.4375H9.5625V6.75H8.4375V8.4375H6.75V9.5625H8.4375V11.25Z" fill="#FD0003"/>
</svg>
