<svg width="26" height="26" viewBox="0 0 26 26" fill="none" xmlns="http://www.w3.org/2000/svg">
<path d="M11.3775 10.8879C11.8449 10.8879 12.241 10.7243 12.566 10.3972C12.891 10.07 13.0535 9.67282 13.0535 9.20549C13.0535 8.73817 12.8899 8.34202 12.5628 8.01702C12.2357 7.69202 11.8385 7.52952 11.3712 7.52952C10.9038 7.52952 10.5077 7.69308 10.1827 8.02021C9.85768 8.34733 9.69518 8.74455 9.69518 9.21188C9.69518 9.67919 9.85875 10.0754 10.1859 10.4004C10.513 10.7254 10.9102 10.8879 11.3775 10.8879ZM9.21088 16.3045C9.67819 16.3045 10.0743 16.141 10.3993 15.8138C10.7243 15.4867 10.8868 15.0895 10.8868 14.6222C10.8868 14.1548 10.7233 13.7587 10.3962 13.4337C10.069 13.1087 9.67182 12.9462 9.20449 12.9462C8.73717 12.9462 8.34102 13.1097 8.01602 13.4369C7.69102 13.764 7.52852 14.1612 7.52852 14.6285C7.52852 15.0959 7.69208 15.492 8.01921 15.817C8.34632 16.142 8.74355 16.3045 9.21088 16.3045ZM16.2493 17.3337C16.5563 17.3337 16.8136 17.2299 17.0212 17.0222C17.2289 16.8146 17.3327 16.5573 17.3327 16.2504C17.3327 15.9434 17.2289 15.6861 17.0212 15.4785C16.8136 15.2708 16.5563 15.167 16.2493 15.167C15.9424 15.167 15.6851 15.2708 15.4775 15.4785C15.2698 15.6861 15.166 15.9434 15.166 16.2504C15.166 16.5573 15.2698 16.8146 15.4775 17.0222C15.6851 17.2299 15.9424 17.3337 16.2493 17.3337ZM13.0057 23.8337C11.5209 23.8337 10.1195 23.5493 8.80143 22.9806C7.48338 22.4118 6.33233 21.6354 5.34831 20.6514C4.36428 19.6674 3.58789 18.5163 3.01914 17.1983C2.45039 15.8802 2.16602 14.4809 2.16602 13.0004C2.16602 11.3392 2.5181 9.78646 3.22227 8.34202C3.92643 6.89757 4.86983 5.67431 6.05247 4.67223C7.23511 3.67014 8.59831 2.94792 10.1421 2.50556C11.6858 2.0632 13.2882 2.00452 14.9493 2.32952C14.841 3.14202 14.9132 3.90938 15.166 4.6316C15.4188 5.35382 15.8025 5.96771 16.3171 6.47327C16.8316 6.97882 17.45 7.34896 18.1723 7.58368C18.8945 7.81841 19.6528 7.87257 20.4473 7.74618C20.0862 8.84757 20.2848 9.83611 21.0431 10.7118C21.8014 11.5875 22.7223 12.0705 23.8056 12.1608C23.95 13.7316 23.765 15.2212 23.2504 16.6295C22.7358 18.0379 21.982 19.2747 20.9889 20.3399C19.9959 21.4052 18.8151 22.2538 17.4466 22.8858C16.0781 23.5177 14.5978 23.8337 13.0057 23.8337ZM12.9993 22.2087C15.5632 22.2087 17.6938 21.3646 19.391 19.6764C21.0882 17.9882 22.0362 15.9073 22.2348 13.4337C21.2598 13.0726 20.4698 12.5354 19.865 11.8222C19.2601 11.109 18.8855 10.292 18.741 9.37118C17.2785 9.17257 16.0462 8.54063 15.0441 7.47535C14.0421 6.41007 13.4688 5.17327 13.3243 3.76493C11.9882 3.71077 10.7379 3.92743 9.57331 4.41493C8.40872 4.90243 7.39761 5.57049 6.53997 6.4191C5.68233 7.26771 5.00977 8.26528 4.52227 9.41181C4.03477 10.5583 3.79102 11.7545 3.79102 13.0004C3.79102 15.5642 4.68477 17.7399 6.47227 19.5274C8.25977 21.3149 10.4355 22.2087 12.9993 22.2087Z" fill="#727070"/>
</svg>
