<svg width="29" height="29" viewBox="0 0 29 29" fill="none" xmlns="http://www.w3.org/2000/svg">
<path d="M14.4994 8.91406C13.0176 8.91406 11.5964 9.50273 10.5486 10.5506C9.50077 11.5984 8.91211 13.0195 8.91211 14.5014C8.91211 15.9832 9.50077 17.4044 10.5486 18.4522C11.5964 19.5001 13.0176 20.0887 14.4994 20.0887C15.9813 20.0887 17.4025 19.5001 18.4503 18.4522C19.4981 17.4044 20.0868 15.9832 20.0868 14.5014C20.0868 13.0195 19.4981 11.5984 18.4503 10.5506C17.4025 9.50273 15.9813 8.91406 14.4994 8.91406ZM14.4994 18.13C13.5368 18.13 12.6135 17.7476 11.9328 17.0669C11.252 16.3861 10.8696 15.4629 10.8696 14.5002C10.8696 13.5375 11.252 12.6142 11.9328 11.9335C12.6135 11.2528 13.5368 10.8704 14.4994 10.8704C15.4621 10.8704 16.3854 11.2528 17.0661 11.9335C17.7468 12.6142 18.1293 13.5375 18.1293 14.5002C18.1293 15.4629 17.7468 16.3861 17.0661 17.0669C16.3854 17.7476 15.4621 18.13 14.4994 18.13Z" fill="#727070"/>
<path d="M20.3065 10.0114C21.0259 10.0114 21.6091 9.42823 21.6091 8.70883C21.6091 7.98944 21.0259 7.40625 20.3065 7.40625C19.5871 7.40625 19.0039 7.98944 19.0039 8.70883C19.0039 9.42823 19.5871 10.0114 20.3065 10.0114Z" fill="#727070"/>
<path d="M24.8102 7.38394C24.5305 6.66158 24.103 6.00558 23.5552 5.45793C23.0073 4.91028 22.3512 4.48306 21.6287 4.20361C20.7833 3.88625 19.8901 3.71465 18.9873 3.69611C17.8237 3.64536 17.4551 3.63086 14.5044 3.63086C11.5536 3.63086 11.1754 3.63086 10.0215 3.69611C9.1193 3.7137 8.22678 3.88534 7.38245 4.20361C6.65979 4.48274 6.00346 4.90984 5.45557 5.45753C4.90767 6.00522 4.48031 6.66139 4.20091 7.38394C3.88349 8.22931 3.71228 9.12254 3.69462 10.0254C3.64266 11.1878 3.62695 11.5563 3.62695 14.5083C3.62695 17.459 3.62695 17.8348 3.69462 18.9912C3.71274 19.895 3.88312 20.7868 4.20091 21.6338C4.4811 22.3561 4.90887 23.012 5.4569 23.5596C6.00492 24.1072 6.66116 24.5345 7.38366 24.8141C8.22639 25.1443 9.11928 25.3282 10.0239 25.3579C11.1875 25.4087 11.556 25.4244 14.5068 25.4244C17.4575 25.4244 17.8357 25.4244 18.9897 25.3579C19.8925 25.3395 20.7856 25.1684 21.6311 24.8516C22.3534 24.5715 23.0094 24.1439 23.5572 23.5961C24.105 23.0483 24.5326 22.3924 24.8127 21.6701C25.1305 20.8242 25.3008 19.9325 25.319 19.0287C25.3709 17.8662 25.3866 17.4977 25.3866 14.5457C25.3866 11.5938 25.3866 11.2192 25.319 10.0628C25.3049 9.14723 25.1328 8.24095 24.8102 7.38394ZM23.3385 18.9018C23.3307 19.5981 23.2036 20.288 22.9627 20.9414C22.7812 21.4113 22.5034 21.838 22.1472 22.1941C21.7909 22.5502 21.364 22.8277 20.894 23.0089C20.2479 23.2487 19.5653 23.3758 18.8761 23.3847C17.7282 23.4379 17.4044 23.4512 14.4609 23.4512C11.515 23.4512 11.2141 23.4512 10.0444 23.3847C9.35557 23.3763 8.67335 23.2491 8.0277 23.0089C7.55607 22.8288 7.1275 22.5518 6.7697 22.1956C6.41189 21.8395 6.13284 21.4122 5.95058 20.9414C5.71308 20.295 5.58604 19.6133 5.57479 18.9247C5.52283 17.7768 5.51074 17.453 5.51074 14.5095C5.51074 11.5648 5.51074 11.2639 5.57479 10.093C5.5826 9.39705 5.7097 8.70757 5.95058 8.05457C6.31912 7.10119 7.07433 6.35082 8.0277 5.9859C8.67367 5.74682 9.35569 5.61973 10.0444 5.61011C11.1935 5.55815 11.5162 5.54365 14.4609 5.54365C17.4056 5.54365 17.7077 5.54365 18.8761 5.61011C19.5654 5.6184 20.248 5.74553 20.894 5.9859C21.364 6.16748 21.7908 6.44531 22.147 6.80156C22.5033 7.15781 22.7811 7.58461 22.9627 8.05457C23.2002 8.70096 23.3272 9.38272 23.3385 10.0713C23.3905 11.2204 23.4037 11.543 23.4037 14.4877C23.4037 17.4312 23.4037 17.7478 23.3518 18.903H23.3385V18.9018Z" fill="#727070"/>
</svg>
