<svg width="26" height="26" viewBox="0 0 26 26" fill="none" xmlns="http://www.w3.org/2000/svg">
<g clip-path="url(#clip0_197_6188)">
<path d="M7.58398 14.8417C7.07843 14.8417 6.6451 14.6611 6.28398 14.3C5.92287 13.9389 5.74232 13.5056 5.74232 13C5.74232 12.4944 5.92287 12.0611 6.28398 11.7C6.6451 11.3389 7.07843 11.1583 7.58398 11.1583C8.08954 11.1583 8.52287 11.3389 8.88399 11.7C9.2451 12.0611 9.42565 12.4944 9.42565 13C9.42565 13.5056 9.2451 13.9389 8.88399 14.3C8.52287 14.6611 8.08954 14.8417 7.58398 14.8417ZM7.58398 19.5C5.77843 19.5 4.24371 18.8681 2.97982 17.6042C1.71593 16.3403 1.08398 14.8056 1.08398 13C1.08398 11.1944 1.71593 9.65972 2.97982 8.39583C4.24371 7.13194 5.77843 6.5 7.58398 6.5C8.88399 6.5 10.0215 6.80694 10.9965 7.42083C11.9715 8.03472 12.7388 8.96458 13.2986 10.2104H22.9402L26.0007 13.2708L21.4777 17.4146L19.0944 15.6812L16.7111 17.4146L14.6798 15.7896H13.2986C12.8472 16.8729 12.1385 17.7622 11.1725 18.4573C10.2066 19.1524 9.01037 19.5 7.58398 19.5ZM7.58398 17.875C8.63121 17.875 9.59718 17.5274 10.4819 16.8323C11.3666 16.1372 11.9354 15.2479 12.1882 14.1646H15.2757L16.7382 15.3833L19.1215 13.6771L21.3423 15.3562L23.6444 13.2167L22.2632 11.8354H12.1882C11.9715 10.8243 11.4298 9.95312 10.5632 9.22187C9.69649 8.49063 8.70343 8.125 7.58398 8.125C6.22982 8.125 5.07878 8.59896 4.13086 9.54688C3.18294 10.4948 2.70898 11.6458 2.70898 13C2.70898 14.3542 3.18294 15.5052 4.13086 16.4531C5.07878 17.401 6.22982 17.875 7.58398 17.875Z" fill="#727070"/>
</g>
<defs>
<clipPath id="clip0_197_6188">
<rect width="26" height="26" fill="white"/>
</clipPath>
</defs>
</svg>
