<svg width="36" height="36" viewBox="0 0 36 36" fill="none" xmlns="http://www.w3.org/2000/svg">
<path d="M29.8125 31.5C26.9125 31.5 23.9563 30.8 20.9438 29.4C17.9313 28 15.1375 26.0125 12.5625 23.4375C9.9875 20.8625 8 18.0688 6.6 15.0563C5.2 12.0438 4.5 9.0875 4.5 6.1875C4.5 5.70535 4.66071 5.30356 4.98214 4.98214C5.30356 4.66071 5.70535 4.5 6.1875 4.5H11.4375C11.7875 4.5 12.0875 4.625 12.3375 4.875C12.5875 5.125 12.7625 5.4375 12.8625 5.8125L13.8723 10.524C13.9241 10.883 13.9188 11.2063 13.8563 11.4938C13.7938 11.7813 13.6596 12.0278 13.4539 12.2335L9.7125 16.0125C10.3625 17.1125 11.05 18.1375 11.775 19.0875C12.5 20.0375 13.3 20.9375 14.175 21.7875C15.1 22.7375 16.075 23.6063 17.1 24.3938C18.125 25.1813 19.2 25.875 20.325 26.475L23.8875 22.8C24.1375 22.525 24.4269 22.3375 24.7557 22.2375C25.0844 22.1375 25.4076 22.1125 25.725 22.1625L30.1875 23.1375C30.5625 23.2375 30.875 23.4381 31.125 23.7392C31.375 24.0403 31.5 24.3772 31.5 24.75V29.8125C31.5 30.2947 31.3393 30.6964 31.0179 31.0179C30.6964 31.3393 30.2947 31.5 29.8125 31.5ZM8.5875 13.95L11.625 10.875L10.7625 6.75H6.75C6.8 7.8 6.96875 8.90625 7.25625 10.0688C7.54375 11.2313 7.9875 12.525 8.5875 13.95ZM22.425 27.5625C23.45 28.0375 24.5625 28.425 25.7625 28.725C26.9625 29.025 28.125 29.2 29.25 29.25V25.2375L25.3875 24.45L22.425 27.5625Z" fill="black"/>
</svg>
